<?xml version="1.0"?>
<svg xmlns="http://www.w3.org/2000/svg" xmlns:xlink="http://www.w3.org/1999/xlink" version="1.1" viewBox="0 0 1050 1050" xml:space="preserve"><g><g>
	<g>
		<path d="M839 441.5q-11-55-39.5-102.5t-70-82-94-54-110.5-19.5q-46 0-88.5 12.5t-79.5 35.5-66.5 54.5-49.5 69.5q-48 5-89.5 27t-72.5 56-48.5 78-17.5 94q0 53 20 99.5t55 81 81.5 55 99.5 20.5h85v-86h-85q-71 0-121-50t-50-120q0-66 43.5-114.5t108.5-55.5l46-5 21-40q30-59 86-93t122-34q42 0 80 14.5t68.5 39.5 52 59.5 29.5 75.5l12 64 66 5q50 3 84.5 40t34.5 86q0 53-37.5 90.5t-90.5 37.5h-128v86h128q44 0 83-17t67.5-46 45.5-68 17-83q0-42-15.5-79t-42-65.5-63-46-77.5-20.5v0zM696 652.5l-171-170-171 170h128v214h86v-214h128z" data-original="#000000" class="active-path" data-old_color="#000000" fill="#cbcccb"/>
	</g>
</g></g> </svg>
