<?xml version="1.0"?>
<svg xmlns="http://www.w3.org/2000/svg" xmlns:xlink="http://www.w3.org/1999/xlink" version="1.1" viewBox="0 0 1040 1040" xml:space="preserve"><g><g>
	<g>
		<path d="m795.996 519.461-137.998 0 184.357 184.357 183.279-184.357-137.998 0q0-75.468-28.57-142.85t-78.702-116.975-116.975-78.702-143.389-29.109q-53.905 0-103.499 15.094t-92.717 42.046l67.921 66.843q28.031-15.094 60.913-23.718t67.382-8.625q57.14 0 107.272 22.101t87.866 59.296 59.296 87.327 21.562 107.272l0 0zm-79.78 311.574-67.921-67.921q-28.031 16.172-60.913 24.257t-67.382 8.086q-57.14 0-107.272-21.562t-87.866-58.757-59.296-87.866-21.562-107.811l137.998 0-184.357-183.279-183.279 183.279 137.998 0q0 76.546 28.57 143.389t78.702 116.975 116.975 79.241 143.389 29.109q53.906 0 103.499-15.094t92.717-42.046l0 0z" data-original="#000000" class="active-path" data-old_color="#000000" fill="#cbcccb"/>
	</g>
</g></g> </svg>
