<svg version="1.1" xmlns="http://www.w3.org/2000/svg" width="1024" height="1024" viewBox="0 0 1024 1024">
<path fill="#414241" d="M832.803 235.585c-24.145-18.22-52.435-31.272-83.286-37.119-5.847-30.851-18.881-59.141-37.098-83.286-36.659-48.552-94.638-80.084-159.908-80.084h-320.335c-66.249 0-120.125 53.876-120.125 120.125v720.751c0 66.249 53.876 120.125 120.125 120.125h560.585c66.249 0 120.125-53.876 120.125-120.125v-480.5c0-65.249-31.533-123.227-80.084-159.887zM832.803 875.972c0 22.103-17.959 40.041-40.041 40.041h-560.585c-22.082 0-40.041-17.938-40.041-40.041v-720.751c0-22.082 17.959-40.041 40.041-40.041h320.335c66.468 0 120.125 53.657 120.125 120.125v40.041h40.041c66.468 0 120.125 53.657 120.125 120.125v480.5zM692.656 395.472h-360.375c-22.103 0-40.041 17.938-40.041 40.041s17.938 40.041 40.041 40.041h360.375c22.103 0 40.041-17.938 40.041-40.041s-17.938-40.041-40.041-40.041zM692.656 555.637h-360.375c-22.103 0-40.041 17.938-40.041 40.041s17.938 40.041 40.041 40.041h360.375c22.103 0 40.041-17.938 40.041-40.041s-17.938-40.041-40.041-40.041zM692.656 715.806h-360.375c-22.103 0-40.041 17.938-40.041 40.041s17.938 40.041 40.041 40.041h360.375c22.103 0 40.041-17.938 40.041-40.041s-17.938-40.041-40.041-40.041z"></path>
</svg>
