<svg version="1.1" xmlns="http://www.w3.org/2000/svg" width="1024" height="1024" viewBox="0 0 1024 1024">
<path fill="#414241" d="M941.936 230.037h-477.084l-57.25-76.334c-9.017-12.023-23.165-19.084-38.166-19.084h-286.25c-26.335 0-47.709 21.374-47.709 47.709v667.917c0 26.335 21.374 47.709 47.709 47.709h858.751c26.335 0 47.709-21.374 47.709-47.709v-572.5c0-26.335-21.374-47.709-47.709-47.709zM655.686 373.162c52.691 0 95.416 42.72 95.416 95.416s-42.72 95.416-95.416 95.416-95.416-42.72-95.416-95.416c0-52.691 42.72-95.416 95.416-95.416zM464.852 802.537c0-118.582 85.446-190.834 190.834-190.834s190.834 72.257 190.834 190.834h-381.667z"></path>
</svg>
