<?xml version="1.0"?>
<svg xmlns="http://www.w3.org/2000/svg" xmlns:xlink="http://www.w3.org/1999/xlink" version="1.1" viewBox="0 0 900 900" xml:space="preserve"><g><g>
	<g>
		<path d="M463.722 470.051c22.955 8.981 50.048 4.267 68.608-14.272 25.003-25.003 25.003-65.515 0-90.517s-65.515-25.003-90.517 0c-18.56 18.56-23.275 45.653-14.272 68.608l-64.533 25.813-218.176-218.283c-141.013 141.013-141.013 369.664 0 510.677 141.013 141.035 370.709 142.336 511.744 1.323l-218.688-218.795 25.835-64.555zM508.437 48.163v85.333c141.333 0 256.32 114.432 256.32 255.083h85.333c0-187.712-153.259-340.416-341.653-340.416zM508.074 176.056v85.333c70.677 0 128.192 57.195 128.192 127.488h85.333c0-117.376-95.808-212.821-213.525-212.821z" data-original="#000000" class="active-path" data-old_color="#000000" fill="#414241"/>
	</g>
</g></g> </svg>
