<?xml version="1.0"?>
<svg xmlns="http://www.w3.org/2000/svg" xmlns:xlink="http://www.w3.org/1999/xlink" version="1.1" viewBox="0 0 1050 1050" xml:space="preserve"><g><g>
	<g>
		<path d="M98 609.016q0-71 50-121t121-50h30q21-74 83-122.5t143-48.5q33 0 63.5 9t56.5 24l62-61q-39-27-85-42t-97-15q-46 0-88.5 12.5t-79.5 35.5-66.5 54.5-49.5 69.5q-48 5-89.5 27t-72.5 56-48.5 78-17.5 94q0 66 30.5 121.5t81.5 89.5l62-62q-40-21-64.5-61t-24.5-88v0zM839 440.016q-5-25-14-48.5t-20-44.5l104-105-60-60-708 708 60 60 86-85h537q44 0 83-17t67.5-46 45.5-68 17-83q0-42-15.5-79t-42-65.5-63-46-77.5-20.5v0zM824 779.016h-452l369-369q9 22 14 45t5 47v21h64q53 0 90.5 37.5t37.5 90.5-37.5 90.5-90.5 37.5v0z" data-original="#000000" class="active-path" data-old_color="#000000" fill="#414241"/>
	</g>
</g></g> </svg>
