<svg version="1.1" xmlns="http://www.w3.org/2000/svg" width="1024" height="1024" viewBox="0 0 1024 1024">
<path d="M281.085 182.135c-19.198-13.709-45.869-9.268-59.578 9.93l-213.542 298.959c-10.613 14.863-10.613 34.807 0 49.648l213.542 298.959c8.328 11.659 21.44 17.873 34.765 17.873 8.584 0 17.276-2.584 24.792-7.965 19.198-13.709 23.639-40.38 9.93-59.578l-195.796-274.124 195.796-274.124c13.73-19.198 9.289-45.869-9.909-59.578zM1014.73 488.034l-256.25-298.959c-15.354-17.916-42.302-19.988-60.219-4.634-17.894 15.354-19.988 42.302-4.634 60.219l232.419 271.177-232.44 271.156c-15.354 17.916-13.282 44.865 4.634 60.219 8.072 6.919 17.959 10.293 27.782 10.293 12.023 0 24.002-5.061 32.459-14.906l256.25-298.959c13.709-16.016 13.709-39.591 0-55.606zM612.289 176.647c-22.273-7.944-46.659 3.652-54.581 25.86l-213.542 597.917c-7.944 22.209 3.631 46.659 25.838 54.581 4.762 1.709 9.609 2.498 14.371 2.498 17.532 0 33.974-10.891 40.21-28.359l213.542-597.917c7.944-22.187-3.631-46.638-25.838-54.581z"></path>
</svg>
